<?xml version="1.0" encoding="UTF-8" standalone="no"?>
<!-- Created with Inkscape (http://www.inkscape.org/) -->

<svg
   width="183.73029mm"
   height="113.85196mm"
   viewBox="0 0 183.73028 113.85196"
   version="1.1"
   id="svg1"
   xml:space="preserve"
   xmlns:xlink="http://www.w3.org/1999/xlink"
   xmlns="http://www.w3.org/2000/svg"
   xmlns:svg="http://www.w3.org/2000/svg"><defs
     id="defs1"><linearGradient
       id="linearGradient42"><stop
         style="stop-color:#000000;stop-opacity:1;"
         offset="0"
         id="stop42" /><stop
         style="stop-color:#000000;stop-opacity:0;"
         offset="1"
         id="stop43" /></linearGradient><linearGradient
       xlink:href="#linearGradient42"
       id="linearGradient43"
       x1="152.71722"
       y1="60.054043"
       x2="155.49921"
       y2="60.054043"
       gradientUnits="userSpaceOnUse" /></defs><g
     id="layer1"
     transform="translate(-12.931787,-35.410718)"><g
       id="g41"><g
         id="g42"><path
           id="Seleção-2-8"
           fill="none"
           stroke="#000000"
           stroke-width="0.658368"
           d="m 125.28061,178.54619 c 1.66221,-0.35734 1.59998,-1.5518 1.606,-3.01125 v -8.63227 c 0,-1.24666 0.0522,-3.89255 -0.28707,-5.01073 -0.31518,-1.0439 -1.15431,-0.85118 -1.38718,-1.46949 -0.24492,-0.64843 0.37941,-0.95357 0.87527,-1.11417 l 3.00724,-0.74277 c 0.39547,-0.0642 0.91542,-0.13049 1.20049,0.22684 0.25094,0.31519 0.20476,1.08807 0.20476,1.48556 v 16.26078 c 0.008,0.52797 -0.006,1.08807 0.3493,1.51968 0.36336,0.44365 1.43738,0.64842 1.1242,1.43134 -0.27904,0.70263 -2.1962,0.26499 -2.87875,0.26098 -3.22205,-0.0141 -3.74601,0.72271 -3.81426,-1.2045 z M 35.946702,159.62348 c 0.851189,-0.20678 1.866984,-0.27502 2.579645,0.33926 1.069998,0.91944 0.736758,2.86271 -0.574141,3.37864 -2.667972,1.04992 -4.621278,-2.30462 -2.005504,-3.7179 z m 76.933558,-0.14855 c 0,0 0.5601,-0.0261 1.15833,0 1.17439,-0.008 0.89535,-0.0201 1.604,0.16261 0.45972,0.46574 1.27677,2.89682 1.56986,3.65164 l 4.66544,12.04502 c 0.25496,0.67854 0.68657,1.83887 1.1222,2.38693 0.90137,1.14026 1.41529,0.45369 1.47752,2.23033 l -5.01876,-0.20075 c -0.68255,0.004 -2.59369,0.42961 -2.88478,-0.28306 -0.37942,-0.93148 1.23662,-0.93549 1.54176,-1.93322 0.19072,-0.62033 -0.71868,-2.8607 -0.86523,-3.80623 h -7.02626 c -0.14855,1.65418 -1.14227,2.68002 -0.92346,4.01099 0.51995,1.35507 1.75055,0.40954 1.91717,1.27477 0.0381,0.78292 0.0161,0.79697 -0.62233,0.79898 h -1.97738 -3.18592 c -0.86724,0.0341 -0.59622,-0.5079 -0.62834,-1.26674 2.24037,-0.30514 2.07977,-2.18014 3.01125,-4.21575 l 3.49707,-9.03377 c 0.34329,-0.89936 1.48757,-3.57938 1.68028,-4.40847 0,-0.42961 -0.16863,-0.97364 -0.11242,-1.41328 z m -99.618339,0.20074 h 6.624759 c 0.421575,0 1.696337,-0.12045 1.599979,0.60025 -0.100376,0.75683 -1.459454,0.60626 -1.5518,1.81679 -0.04814,0.61027 0.963605,3.23208 1.222572,4.00698 l 3.346509,9.43527 3.280256,-9.23452 c 0.283064,-0.80702 1.29484,-3.31239 1.270751,-4.01501 -0.04616,-1.36711 -1.565856,-1.19848 -1.59195,-2.00349 -0.02204,-0.72471 1.196469,-0.60627 1.658202,-0.60627 h 4.215753 v 1.20451 c -1.929208,0.50388 -2.14201,2.13598 -2.810502,3.81425 l -4.053153,10.63977 -1.15632,3.01126 c -0.160604,0.42558 -0.365368,1.13624 -0.742775,1.40726 -0.331243,0.23688 -1.072012,0.21078 -1.475514,0.19472 -0.40753,-0.0161 -0.752818,-0.0261 -1.074017,-0.31718 -0.43563,-0.39347 -1.351048,-3.14777 -1.646153,-3.89456 l -4.745735,-12.64727 c -0.214807,-0.55608 -0.395481,-1.12018 -0.819061,-1.56184 -0.889324,-0.91743 -1.423325,-0.30513 -1.551801,-1.85092 z m 76.084372,9.83678 c -0.841146,-0.799 -1.417292,-1.70638 -1.786678,-2.81051 -0.244912,-0.73475 -0.28908,-1.65218 -0.114422,-2.40901 0.811032,-3.51313 5.737441,-4.27799 8.12035,-2.63986 2.214269,1.51968 1.724445,4.4165 -0.196733,5.94823 -0.756827,0.60426 -1.481545,1.03788 -2.409004,1.30889 0.784928,1.5257 3.041367,4.26394 4.215752,5.62101 0.612284,-1.83084 1.99546,-3.92869 -0.60225,-4.81801 0.02412,-0.2951 0.0078,-0.63638 0.204764,-0.8833 0.393475,-0.49786 2.73221,-0.32522 3.408738,-0.3212 0.44768,0.004 1.47752,-0.0763 1.45745,0.61028 -0.02,0.61831 -0.83512,0.77088 -1.31291,1.42333 l -1.419298,3.58741 c -0.212802,0.39346 -0.650437,0.94553 -0.584185,1.40525 0.08833,0.59622 1.547782,1.94325 2.059703,2.29256 0.33725,0.23287 0.78091,0.35934 1.03587,0.63437 0.19673,0.2128 0.25896,0.43362 0.36938,0.68657 -1.02182,0.56611 -2.461207,1.26272 -3.613508,0.71266 -1.043903,-0.49987 -1.71842,-1.60399 -2.417035,-1.54377 -0.413546,0.0341 -1.565854,0.96361 -2.200222,1.23663 -1.728464,0.79898 -4.105342,0.805 -5.821766,0 -2.579636,-1.24466 -3.679748,-4.52693 -2.194191,-7.03028 0.796969,-1.34101 2.431082,-2.33473 3.800195,-3.01125 z m -34.930555,-2.20827 c -0.156584,-2.70812 0.369378,-0.70262 2.591685,-2.84663 2.32067,-2.50336 0.614299,-2.61578 3.02932,-2.57363 v 3.61352 h 4.01501 v 1.80674 h -4.01501 v 6.62477 c 0.0061,1.16033 0.06223,2.99921 1.409271,3.41677 0.921443,0.28506 2.043638,-0.86122 2.774364,-0.92145 0.742783,1.39121 0.343292,1.76861 -1.373132,3.05342 -1.517668,0.86322 -3.878495,0.87326 -5.197425,-0.37139 -1.13223,-1.06598 -1.224577,-2.90686 -1.226582,-4.37435 v -7.42777 z m 37.540313,0.40151 c 0.630358,-0.20075 1.076022,-0.39548 1.563841,-0.86925 0.497863,-0.48381 0.885314,-1.25068 0.971636,-1.94125 0.385437,-3.03535 -3.701832,-3.61352 -3.980877,-0.803 -0.05221,0.53801 0.07226,1.10613 0.264991,1.606 0.269001,0.70262 0.762853,1.37915 1.180409,2.0075 z m 21.881789,-3.01126 -1.08807,2.40901 -1.72244,5.01876 h 5.42026 z m -45.771086,5.42027 c -0.407521,-0.0843 -1.228588,-0.17064 -1.489559,-0.52397 -0.44366,-0.96962 0.527967,-2.52543 1.098106,-3.04738 1.114157,-1.0158 3.529188,-1.51366 5.008712,-1.42935 0.531995,0.0301 1.712396,0.23086 2.208253,0.40552 3.424801,1.2065 2.834592,5.70733 2.810503,8.61019 -0.0078,0.91139 -0.307145,3.33445 0.632363,3.79417 0.313169,0.12647 0.648431,0.0522 0.973641,0 0.09235,0.29309 0.214806,0.50388 0.172644,0.81505 -0.17465,1.27477 -2.58968,1.52971 -3.585396,1.34703 -1.367117,-0.24893 -1.505628,-1.02182 -2.007509,-2.14201 -2.224304,4.69154 -10.780286,1.22258 -7.498016,-3.41275 0.347294,-0.49184 0.776899,-0.8833 1.274761,-1.22257 0.73675,-0.49987 1.547782,-0.79899 2.408998,-1.00576 1.341021,-0.3232 2.645896,-0.38142 4.015009,-0.38142 0,-1.03186 0.0803,-2.28053 -0.429605,-3.21201 -0.857196,-1.56786 -2.983147,-2.25443 -4.362295,-0.95758 -0.670515,0.62835 -0.873264,1.54979 -1.23061,2.36284 z m 74.277636,-2.81052 c 0.0522,-1.63811 0.46373,-1.30487 3.01125,-1.87701 0.45169,-0.10238 1.4956,-0.40149 1.88705,-0.11845 0.39548,0.28507 0.3212,1.15432 0.3212,1.59397 v 8.63227 c 0.003,0.62232 -0.0602,1.43134 0.34932,1.94526 0.37138,0.46775 1.43736,0.6143 1.1242,1.40927 -0.21481,0.55206 -1.35909,0.62634 -1.87502,0.71066 -1.80474,0.2951 -3.14977,0.97364 -3.212,-1.45544 -0.89534,0.71266 -1.71842,1.3109 -2.81051,1.69633 -2.3568,0.83312 -5.20344,0.2389 -6.16905,-2.29858 -0.44768,-1.1744 -0.25295,-5.32792 -0.25495,-6.82552 -0.003,-0.74879 -0.022,-2.12193 -0.43363,-2.75629 -0.31719,-0.48783 -1.72645,-0.9355 -1.16435,-1.71441 0.23689,-0.32923 1.01379,-0.39749 1.39723,-0.46977 1.31892,-0.24892 2.25041,-0.46775 3.6135,-0.47979 0.39548,2.21228 0.17064,6.74923 0.20075,9.23452 0.0121,0.95959 0.10841,1.84891 0.84716,2.55354 1.22458,1.17239 3.82631,0.4557 4.56908,-0.95556 0.24291,-0.46374 0.20276,-1.08607 0.20477,-1.59798 v -4.4165 c 0,-0.57817 0.0422,-1.27678 -0.23488,-1.79873 -0.33123,-0.62032 -0.74679,-0.79698 -1.37112,-1.01179 z m 10.84052,7.22702 c -3.40272,-1.61403 -3.14777,-6.91183 0.20075,-8.6684 2.84061,-1.48956 5.01273,-0.49987 7.82926,-0.19874 l 4.01501,-0.16662 c 0,0.43161 0.0602,1.34904 -0.20477,1.6863 -0.33726,0.42559 -2.24238,0.50991 -2.80649,0.52195 2.60373,3.41677 0.19473,6.94395 -3.6135,7.72688 -0.81104,0.16662 -3.30436,-0.10239 -3.72794,0.25093 -0.55808,0.46775 -0.25094,1.05796 0.32722,1.31091 0.59222,0.25695 2.31064,0.34528 2.99921,0.34729 1.63009,0.003 4.05315,-0.0883 5.38212,0.99171 2.26246,1.83888 1.45544,6.06065 -2.57161,7.50405 -1.96736,0.67051 -6.26943,0.7508 -8.23077,0 -1.8469,-0.65846 -3.08553,-2.37689 -1.98943,-4.28 0.46574,-0.81103 1.2587,-1.26673 1.98943,-1.80675 -2.5174,-1.04591 -1.88504,-3.91263 0.40151,-4.81801 z m -119.255743,4.11137 c 0.499867,-0.20276 0.881294,-0.25295 1.180409,-0.74278 0.258966,-0.4296 0.232872,-1.07401 0.234877,-1.56183 v -6.22326 c -0.0017,-0.60627 0.05419,-1.25871 -0.321199,-1.77866 -0.409527,-0.56611 -1.45343,-0.805 -1.15231,-1.57588 0.176664,-0.4537 0.8552,-0.53399 1.272765,-0.63638 1.224569,-0.30113 2.571606,-0.72271 3.814248,-0.8271 v 9.63602 c 0.0017,0.74277 0.05221,2.34677 0.43563,2.96709 0.632363,1.18041 1.431354,-0.23086 1.371127,2.05167 l -3.613505,-0.1606 -3.242121,0.14655 z m 8.642303,-3.70987 c 3.065459,-0.11844 0.933484,0.68054 3.61551,3.13974 1.276775,0.74478 3.547261,0.60626 3.918644,-1.13223 0.337267,-1.58393 -1.59195,-2.26648 -2.716151,-2.69408 -1.037879,-0.39547 -2.563576,-0.94152 -3.404722,-1.62809 -1.475513,-1.20248 -1.840881,-3.4549 -0.929472,-5.1131 1.258701,-2.28454 4.647364,-2.48128 6.943953,-2.11992 0.592214,0.0923 2.049654,0.37339 2.411011,0.85519 0.266996,0.35734 0.206768,1.40927 0.198739,1.86698 0.214807,1.91315 -0.307145,1.33699 -1.806748,1.40526 -0.329238,-1.39924 -0.849175,-2.48329 -2.409006,-2.74427 -1.114166,-0.18669 -2.947017,0.534 -2.593699,1.93725 0.29711,1.18241 2.370862,1.78467 3.396701,2.15003 2.288551,0.81907 4.153521,1.72846 4.213748,4.47874 0.01409,0.72069 -0.01806,1.33097 -0.295104,2.0075 -1.14428,2.79847 -5.147241,3.16182 -7.732901,2.6479 -0.756829,-0.15056 -2.198218,-0.51592 -2.690056,-1.12018 -0.562101,-0.69059 -0.236883,-3.05543 -0.120447,-3.93672 z m 123.86296,-9.03377 5.01876,-0.60225 c 0.35733,1.99145 0.20074,5.28977 0.20074,7.42777 0,1.16836 -0.0964,2.7583 0.46173,3.81024 1.06598,2.0075 3.91664,1.1242 4.83808,-0.21481 0.37541,-0.54604 0.3192,-1.15832 0.32121,-1.78868 v -4.61726 c -0.003,-0.55006 0.0181,-1.27677 -0.26299,-1.76459 -0.31719,-0.54805 -0.78092,-0.67653 -1.34302,-0.84517 v -1.20449 l 3.40472,-0.59222 c 0.39549,-0.0762 1.16034,-0.26298 1.50162,0 0.38745,0.31117 0.31317,1.14428 0.31317,1.59597 v 8.43152 c 0.004,0.62031 -0.022,1.42934 0.37139,1.94526 0.66248,0.86323 1.17038,0.0743 1.23461,1.86898 l -3.41276,0.48582 c -0.48781,0.0662 -1.06798,0.19072 -1.45744,-0.20476 -0.36536,-0.36938 -0.33726,-1.00576 -0.3493,-1.48555 -0.67653,0.57214 -1.3892,1.14026 -2.20826,1.4996 -2.31265,1.01981 -5.60896,0.70865 -6.67294,-1.9011 -0.60024,-1.47552 -0.35132,-5.82176 -0.35332,-7.62851 0,-0.62033 0.0361,-1.43136 -0.26298,-1.98543 -0.62835,-1.16034 -1.27677,-0.34931 -1.34302,-2.23034 z m 29.5103,10.03752 c 0.17465,0.32522 0.38543,0.60828 0.35331,1.00376 -0.13249,1.57789 -3.17587,2.95103 -4.56907,3.15178 -4.53093,0.65444 -7.57631,-2.57764 -7.62851,-6.96604 -0.0261,-2.37889 0.25093,-4.40045 2.04364,-6.19516 2.16408,-2.14602 7.04031,-2.33874 9.13212,0 1.39121,1.53976 1.47151,3.24212 1.47151,5.19141 h -9.23452 l 0.51192,2.409 c 0.72671,2.04163 2.12795,3.09958 4.30609,3.00323 1.73448,-0.0763 2.19018,-0.95758 3.61351,-1.59798 z m -39.74857,-9.14819 c -0.52195,0.20878 -0.72873,0.27704 -1.10413,0.73876 -1.37112,1.68228 -1.07,7.36553 2.71013,6.2875 1.78467,-0.5079 1.82483,-2.17211 1.80676,-3.69982 -0.0281,-2.30663 -0.93952,-3.69582 -3.41276,-3.32644 z m 31.31705,3.72793 h 4.01501 c 0.37941,-0.006 0.97967,0.008 1.29082,-0.23487 0.67251,-0.53199 0.0622,-2.03962 -0.37138,-2.55355 -0.87327,-1.03989 -2.39697,-1.33097 -3.51113,-0.49384 -0.44567,0.33525 -0.75482,0.76887 -0.97966,1.27476 -0.28105,0.63437 -0.38545,1.32294 -0.44366,2.0075 z m -97.363915,0 c -2.720162,1.47351 -2.531458,5.32591 -0.192715,6.71911 1.630093,0.97164 3.430826,0.44969 5.010724,-0.29509 z m -16.060031,2.81051 c -0.863221,0.008 -1.355058,0.0482 -2.208253,0.22083 -0.546032,0.11041 -0.935489,0.23086 -1.401241,0.55205 -0.325209,0.22284 -0.628343,0.49987 -0.833107,0.84116 -1.4173,2.36082 2.89482,3.57937 3.926674,1.75656 0.347302,-0.6143 0.355332,-2.47726 0.515927,-3.3706 z m 80.300136,6.82551 c -0.40149,0.72672 -0.86121,1.54578 -0.7267,2.409 0.42959,2.7563 5.40821,2.59169 6.94194,1.60601 1.03788,-0.6685 1.71843,-2.35882 0.55407,-3.26421 -0.45771,-0.35733 -1.00777,-0.3232 -1.54979,-0.38143 -1.06398,-0.11643 -1.05796,-0.16662 -2.20826,-0.16862 -1.12821,-0.003 -1.89307,0.0703 -3.01126,-0.20075 z"
           style="fill:#3b82f6;fill-opacity:1;stroke:none;stroke-width:0.223001;stroke-dasharray:none;stroke-opacity:1" /><g
           id="g39"
           transform="translate(101.78186,212.77371)"
           style="stroke:none;stroke-width:0.4;stroke-dasharray:none"><path
             id="path34"
             style="display:inline;fill:#3b82f6;stroke:none;stroke-width:0.4;stroke-linecap:round;stroke-linejoin:bevel;stroke-dasharray:none;paint-order:fill markers stroke"
             d="m -22.418229,-175.33569 -0.01137,2.10634 c -0.0086,0.91277 0.024,1.15 0.0031,1.93735 v 2.32233 l -1.059367,6.73551 c -0.180579,0.90348 -0.376366,1.81184 -0.586011,2.72283 -0.628933,2.73297 -1.38296,5.49076 -2.227771,8.22172 -4.9e-5,1.6e-4 4.9e-5,3.6e-4 0,5.2e-4 -1.126379,3.64113 -2.414259,7.23417 -3.782198,10.65516 -1.096248,2.74064 -2.373985,5.77926 -3.754809,8.76174 -1.380825,2.98248 -2.864744,5.90882 -4.37441,8.42533 l -4.726327,-9.98751 c -1.296862,-2.99262 -2.600047,-6.23896 -3.821472,-9.57512 -0.814283,-2.22411 -1.59215,-4.48794 -2.307869,-6.74326 -1.07358,-3.38298 -2.007017,-6.74664 -2.712496,-9.92653 -0.631739,-2.83584 -1.256844,-5.69265 -1.523938,-8.59585 v -1.8557 c -0.07664,-0.94181 -0.195807,-1.73487 -0.236162,-2.53473 -0.04035,-0.79987 -0.0019,-1.60653 0.236162,-2.57504 -1.623475,0.4622 -3.328075,1.54914 -4.881873,2.28306 l -10.451558,5.0891 c -1.599669,0.82016 -3.396585,1.62053 -4.951636,2.68304 -0.932895,0.63745 -1.7788,1.36931 -2.443262,2.25671 -0.628835,0.84135 -1.081379,1.7523 -1.43247,2.70371 -0.351092,0.95141 -0.601024,1.94351 -0.82424,2.94659 -0.14881,0.66872 -0.285565,1.34222 -0.433048,2.01228 l -2.598808,13.4705 c -0.549868,2.93746 -1.07805,5.88576 -1.582849,8.8408 -1.009598,5.91008 -1.926416,11.84837 -2.740918,17.78806 -0.407251,2.96985 -0.788828,5.93987 -1.143599,8.90695 l -1.630392,14.167613 -0.422713,4.877221 c -0.0093,0.440125 -0.02784,0.948411 0.03979,1.430404 0.06764,0.481994 0.221461,0.937698 0.557072,1.273307 0.803608,0.778039 2.039379,0.733971 2.849955,0.868681 l 6.412528,0.852144 c 1.263477,0.116129 2.975335,0.26929 4.489649,-0.10697 0.274064,-0.411098 0.369328,-2.122797 0.450618,-2.691825 l 0.794267,-5.806364 2.721798,-19.509401 c 0,0 2.814652,-20.8124 3.242179,-23.18515 -1.52e-4,-1.3e-4 -3.65e-4,-9.4e-4 -5.17e-4,-0.001 h 5.17e-4 c -1.8e-5,9e-5 1.7e-5,9.9e-4 0,0.001 0.128308,0.10604 0.266407,0.62286 0.406177,1.38493 0.41931,2.2862 0.851891,6.78112 1.066085,9.0258 0.403255,4.22156 0.4847,8.00282 0.345198,11.66234 -0.139502,3.65952 -0.499928,7.19732 -0.980818,10.93318 -0.320594,2.490581 -0.694701,5.069066 -1.09244,7.830016 l -1.892908,12.542387 c -0.168677,1.087248 -0.703918,3.723145 -0.564306,5.076176 0.01994,0.19329 0.05387,0.360316 0.104386,0.492993 0.05835,0.154161 0.136141,0.296419 0.22996,0.427365 0.0939,0.131053 0.203696,0.250432 0.326078,0.360701 0.244523,0.22039 0.538569,0.401795 0.854728,0.553971 0.31616,0.152176 0.653851,0.275108 0.98547,0.378789 0.331776,0.103745 0.657228,0.188096 0.948263,0.263033 0.74206,0.191032 1.545349,0.365677 2.38125,0.520381 2.507834,0.464168 5.306237,0.748142 7.605737,0.751892 1.548963,0.0025 2.961002,0.01023 4.353739,-0.141593 1.044676,-0.11391 2.078875,-0.317403 3.151746,-0.680062 0.357623,-0.120886 0.719662,-0.259775 1.087789,-0.418579 2.086826,-0.899993 3.634066,-2.216969 4.881872,-3.801835 0.623903,-0.792433 1.172829,-1.651735 1.676901,-2.559534 0.504072,-0.907798 0.963476,-1.864027 1.407666,-2.849955 0.334506,-0.739864 0.736593,-1.641425 1.086755,-2.552299 0.350043,-0.910564 0.648199,-1.830441 0.773596,-2.606042 l 1.061434,3.117122 c 0.288578,0.764703 0.585209,1.541991 0.909505,2.316654 0.324296,0.774663 0.676022,1.546555 1.074353,2.300635 0.398388,0.754226 0.843146,1.49058 1.353923,2.193665 0.510682,0.702954 1.087379,1.37239 1.74873,1.993676 0.370595,0.342144 0.743125,0.658669 1.118278,0.951364 0.10752,0.08389 0.216634,0.151515 0.324528,0.23151 0.26858,0.199114 0.536802,0.400973 0.807703,0.576709 1.518962,0.985424 3.074369,1.611669 4.666382,1.978174 0.795946,0.183238 1.601127,0.301434 2.415356,0.366902 0.407115,0.03274 0.816661,0.05255 1.228349,0.06046 0.411518,0.0079 0.825695,0.004 1.241785,-0.0098 0.832526,-0.02768 1.674071,-0.09603 2.52491,-0.192236 1.701679,-0.192409 3.440166,-0.497199 5.215186,-0.815971 0.565945,-0.118994 1.069589,-0.2239 1.548742,-0.33538 0.479291,-0.111519 0.9344764,-0.229802 1.4030156,-0.375688 0.9370788,-0.291771 1.9288154,-0.694084 3.2793863,-1.374593 0.2299344,-0.140514 0.2903775,-0.410934 0.2945557,-0.734322 0.00418,-0.323388 -0.047908,-0.699746 -0.043408,-1.051615 l -0.8108032,-5.381584 c -0.2967091,-2.241275 -0.6297781,-4.479181 -0.9720337,-6.716386 -0.6845113,-4.474409 -1.4065991,-8.945849 -1.9523356,-13.435351 -0.2728683,-2.24475 -0.5014571,-4.49412 -0.6593911,-6.75049 l -0.234611,-2.35025 0.281119,-11.47578 0.172083,-1.67949 c 0.072,-0.9058 0.1876507,-1.88344 0.2666505,-2.37815 l 0.1209229,-1.06608 0.111621,-1.02423 0.4645712,-5.34179 c 0.1701271,0.32051 0.3005265,0.66671 0.4041097,1.02836 0.081322,0.28393 0.136014,0.58183 0.1896525,0.87953 0.014683,0.0815 0.038508,0.15878 0.051676,0.24081 0.1225993,0.76365 0.1849772,1.54613 0.2837036,2.26395 l 0.9916708,6.96753 2.0903116,15.09676 1.5280722,10.684095 1.3983642,10.219015 c 0.085357,0.614901 0.2488455,2.151278 0.5488037,3.10627 0.099986,0.31833 0.2153953,0.571836 0.3477824,0.705383 0.094355,0.09407 0.2223419,0.166875 0.3767212,0.222209 0.15454443,0.05548 0.33453381,0.09313 0.53330078,0.116789 0.79364052,0.09448 1.87629962,-0.03654 2.73678382,-0.168466 0.4302802,-0.06598 0.8054327,-0.132209 1.0609172,-0.170532 0.491219,-0.072 1.5819187,-0.202087 2.6313639,-0.375171 0.7868608,-0.129775 1.5506655,-0.283565 2.0205485,-0.455269 0.1566166,-0.05725 0.280962,-0.116798 0.3622518,-0.177767 0.3135494,-0.236899 0.5810947,-0.748762 0.8035685,-1.296045 0.2224739,-0.547282 0.3998776,-1.129987 0.5322673,-1.507401 0.2821942,-0.80361 0.8712897,-2.314193 1.4019817,-3.797701 0.530692,-1.48351 1.002983,-2.939955 1.050582,-3.634404 l -0.643372,-6.038391 -1.358573,-10.451554 c -0.7548318,-5.73907 -1.5504852,-11.49368 -2.4411949,-17.23306 -0.8907097,-5.73938 -1.876483,-11.46356 -3.0122192,-17.14107 l -2.1833293,-10.45156 c -0.268259,-1.33316 -0.5327268,-2.7577 -0.9441284,-4.12378 -0.1028968,-0.34167 -0.2148021,-0.67928 -0.3384806,-1.01131 -0.1236123,-0.33188 -0.25862654,-0.65755 -0.40772708,-0.97513 -0.29820109,-0.63516 -0.65204305,-1.2371 -1.0805542,-1.78697 -0.62195063,-0.79791 -1.44089012,-1.48192 -2.34611002,-2.09031 -0.3016922,-0.20278 -0.6129056,-0.39722 -0.929659,-0.58446 -1.2670141,-0.74899 -2.621452,-1.38491 -3.8013184,-1.99575 l -11.6127279,-5.74848 z m -15.792834,74.04148 c 0.22166,-0.007 0.429837,0.004 0.624768,0.032 0.194931,0.0281 0.376294,0.0727 0.544669,0.13177 1.51e-4,6e-5 3.66e-4,-5e-5 5.17e-4,0 0.05367,0.0188 0.09733,0.0481 0.148311,0.0698 0.200117,0.0851 0.3785,0.1912 0.537435,0.31471 0.0545,0.0424 0.116197,0.0789 0.165882,0.12505 0.115782,0.10765 0.218762,0.22514 0.308508,0.35037 0.179492,0.25047 0.307053,0.531277 0.383439,0.825273 0.114579,0.440994 0.114032,0.91092 5.17e-4,1.349272 -0.113515,0.438351 -0.340029,0.845121 -0.676961,1.160136 -0.336933,0.315014 -0.784296,0.538281 -1.33997,0.609265 -0.389808,0.04996 -0.745017,0.0243 -1.061951,-0.06098 -0.158246,-0.04254 -0.306864,-0.09988 -0.445451,-0.170016 -1.32e-4,-6.7e-5 -3.85e-4,6.7e-5 -5.17e-4,0 -0.138706,-0.07023 -0.266984,-0.153229 -0.384989,-0.247013 -0.118005,-0.09378 -0.22564,-0.19836 -0.321944,-0.311609 -0.288912,-0.339749 -0.477866,-0.758079 -0.553455,-1.19941 -0.07559,-0.441331 -0.03763,-0.905913 0.127124,-1.33842 0.109834,-0.288338 0.276155,-0.562108 0.502812,-0.805638 0.113329,-0.12176 0.241471,-0.23612 0.385506,-0.34054 0.288071,-0.20885 0.638849,-0.37906 1.05575,-0.49403 z" /><path
             id="path33"
             style="fill:#3b82f6;stroke:none;stroke-width:0.4;stroke-linecap:round;stroke-linejoin:bevel;stroke-dasharray:none;paint-order:fill markers stroke"
             d="m -26.415401,-176.18421 c -0.569204,-0.0267 -1.363943,0.38064 -2.106331,0.85421 -0.371195,0.23678 -0.729465,0.49032 -1.03973,0.71417 -0.310266,0.22384 -0.572555,0.41803 -0.752409,0.53692 l -5.109766,3.18378 -3.019453,-0.15555 c -0.497729,0.0264 -1.195071,0.20576 -1.669666,0.19276 -0.0678,-0.002 -0.131135,-0.008 -0.188619,-0.0186 -0.132274,-0.0249 -0.298451,-0.088 -0.480591,-0.17363 -1.32e-4,-6e-5 -3.84e-4,6e-5 -5.17e-4,0 -0.364522,-0.17142 -0.793999,-0.43306 -1.149283,-0.65732 -1.42e-4,-9e-5 -3.75e-4,9e-5 -5.17e-4,0 -0.177677,-0.11216 -0.336307,-0.2152 -0.459404,-0.29301 l -4.41265,-2.91041 c -0.325636,-0.20374 -0.692285,-0.47212 -1.077971,-0.70901 -1.28e-4,-7e-5 -3.88e-4,8e-5 -5.16e-4,0 -0.32137,-0.19735 -0.656019,-0.37317 -0.991671,-0.47128 -1.63e-4,-5e-5 -3.54e-4,4e-5 -5.17e-4,0 -0.067,-0.0196 -0.134049,-0.0361 -0.201021,-0.0491 -1.69e-4,-3e-5 -3.48e-4,4e-5 -5.17e-4,0 -0.268539,-0.0519 -0.53569,-0.0471 -0.795817,0.0429 -0.06765,0.0935 -0.124867,0.21619 -0.173116,0.36071 -0.0965,0.28903 -0.157543,0.66665 -0.195337,1.079 -0.0189,0.20617 -0.03188,0.42089 -0.04082,0.63769 -0.01788,0.43358 -0.01908,0.87497 -0.01602,1.2702 0.0031,0.39523 0.01048,0.74413 0.0093,0.99322 l 0.21394,7.43211 c 0.03571,0.4468 0.05022,1.01835 0.139527,1.56528 0.02977,0.18231 0.06796,0.36192 0.117822,0.5333 0.04986,0.17138 0.111599,0.33426 0.188619,0.48369 0.07702,0.14943 0.169356,0.28507 0.280603,0.40153 0.166869,0.17467 0.375996,0.30622 0.639754,0.37568 1.63e-4,5e-5 3.54e-4,-4e-5 5.17e-4,0 0.08778,0.0231 0.18188,0.0394 0.282153,0.0481 0.829153,0.072 1.858104,-0.58108 2.550232,-0.99218 l 4.837948,-2.9099 c 0.246772,-0.0976 0.451668,-0.12201 0.644405,-0.10284 1.68e-4,2e-5 3.48e-4,-2e-5 5.17e-4,0 0.04801,0.005 0.0952,0.0124 0.14211,0.0222 1.66e-4,4e-5 3.5e-4,-3e-5 5.16e-4,0 0.423503,0.0885 0.820625,0.36191 1.521871,0.48989 1.79e-4,4e-5 3.39e-4,-3e-5 5.17e-4,0 0.0778,0.0142 0.159209,0.0265 0.244946,0.0367 1.77e-4,2e-5 3.4e-4,-2e-5 5.17e-4,0 0.08577,0.0102 0.176174,0.018 0.270785,0.0233 1.414442,0.079 2.072071,-0.53876 2.787426,-0.56896 0.08884,-0.004 0.178532,10e-4 0.269235,0.0139 1.73e-4,3e-5 3.43e-4,-2e-5 5.16e-4,0 0.45336,0.0636 0.923227,0.31716 1.343588,0.56948 1.26e-4,7e-5 3.9e-4,-8e-5 5.16e-4,0 0.16806,0.10088 0.328511,0.20171 0.476457,0.2899 l 3.94808,2.30839 c 0.179999,0.0993 0.389975,0.21924 0.616499,0.33589 0.113263,0.0583 0.230563,0.11578 0.350367,0.1695 0.119803,0.0537 0.241883,0.10359 0.364835,0.14676 1.5e-4,6e-5 3.67e-4,-5e-5 5.17e-4,0 0.184272,0.0647 0.370093,0.11427 0.551904,0.1385 0.06083,0.008 0.121171,0.0134 0.180868,0.0155 0.237947,0.008 0.465617,-0.0342 0.668693,-0.15141 0.214256,-0.12194 0.369357,-0.29619 0.485758,-0.49765 0.0776,-0.1343 0.13792,-0.28035 0.187069,-0.43149 0.07372,-0.22671 0.122333,-0.46433 0.165881,-0.6873 l 0.376205,-4.64519 v -5.80637 c -0.0023,-0.15793 -0.0048,-0.39375 -0.0155,-0.66456 -0.01072,-0.2708 -0.02982,-0.57661 -0.06511,-0.87488 -0.01765,-0.14913 -0.03932,-0.29616 -0.06615,-0.43615 -0.04023,-0.20998 -0.09208,-0.4039 -0.158647,-0.56327 -0.04438,-0.10625 -0.09539,-0.19728 -0.153996,-0.26769 -0.02931,-0.0352 -0.06029,-0.0651 -0.09353,-0.0894 -0.05966,-0.0435 -0.125678,-0.076 -0.196887,-0.0987 -0.07121,-0.0226 -0.147612,-0.0354 -0.228927,-0.0393 z" /><path
             id="path27"
             style="display:inline;fill:none;stroke:none;stroke-width:0.4;stroke-dasharray:none"
             d="m -26.681873,-179.82427 c -0.05374,-4.7e-4 -0.107882,2.2e-4 -0.163297,0.002 -0.08848,0.0244 -0.173784,0.0519 -0.256315,0.0811 a 2.4895995,2.4895995 0 0 0 -1.926498,2.41897 2.4895995,2.4895995 0 0 0 0.73949,1.76114 2.4895995,2.4895995 0 0 0 0.03927,0.0398 c 0.01537,0.0156 0.03067,0.0313 0.04651,0.0465 a 2.4895995,2.4895995 0 0 0 0.04703,0.0439 c 0.480516,0.43674 1.163207,0.68442 2.00763,0.57619 2.601156,-0.33228 2.830702,-3.99916 0.450102,-4.81107 -5.13e-4,-1.8e-4 -0.001,-3.4e-4 -0.0016,-5.2e-4 a 2.4895995,2.4895995 0 0 0 -0.520898,-0.12402 2.4895995,2.4895995 0 0 0 -0.08785,-0.0103 c -0.119804,-0.0139 -0.24412,-0.0226 -0.373621,-0.0238 z"
             transform="translate(-11.365893,78.527989)" /><path
             style="fill:#ffffff;fill-opacity:1;stroke:none;stroke-width:0.359914;stroke-linecap:round;stroke-linejoin:bevel;stroke-dasharray:none;stroke-opacity:1;paint-order:fill markers stroke"
             id="circle36"
             d="m -164.43795,37.872181 a 3.2698245,2.6844153 0 0 1 -3.26525,2.684413 3.2698245,2.6844153 0 0 1 -3.27439,-2.676902 3.2698245,2.6844153 0 0 1 3.25609,-2.691903 3.2698245,2.6844153 0 0 1 3.28349,2.669369 l -3.26977,0.01502 z"
             transform="rotate(90)" /><path
             id="path35"
             style="fill:#fafcff;fill-opacity:1;stroke:none;stroke-width:0.4;stroke-linecap:round;stroke-linejoin:bevel;stroke-dasharray:none;stroke-opacity:1;paint-order:fill markers stroke"
             d="m -38.045699,-115.93828 c -0.05423,0.001 -0.109369,0.004 -0.165364,0.007 -0.184357,0.0526 -0.355362,0.11569 -0.514181,0.18758 a 2.4895995,2.4895995 0 0 0 -1.549259,1.84899 2.4895995,2.4895995 0 0 0 -0.03049,0.19068 c -0.01124,0.0903 -0.01816,0.18081 -0.01964,0.2713 a 2.4895995,2.4895995 0 0 0 -5.17e-4,0.008 2.4895995,2.4895995 0 0 0 5.17e-4,0.008 c -3.16e-4,0.0315 -3.31e-4,0.0631 5.16e-4,0.0946 v 5.2e-4 c 0.0021,0.0764 0.0072,0.15223 0.01602,0.22789 0.02209,0.18916 0.06518,0.37503 0.128158,0.55397 v 5.2e-4 c 0.01255,0.0356 0.02619,0.0709 0.04031,0.10594 v 5.1e-4 c 0.05668,0.14057 0.125921,0.27589 0.207223,0.40411 v 5.2e-4 c 0.08133,0.12822 0.175216,0.24907 0.280086,0.3607 v 5.2e-4 c 0.104903,0.11163 0.221456,0.21408 0.348816,0.30489 0.06373,0.0454 0.13032,0.0877 0.199471,0.12712 0.03457,0.0197 0.06951,0.0387 0.10542,0.0568 0.07181,0.0362 0.146217,0.0693 0.223242,0.0987 0.115673,0.0442 0.236747,0.0801 0.363802,0.10748 0.08459,0.0182 0.172013,0.0328 0.261483,0.0429 0.26841,0.0302 0.558319,0.0225 0.868164,-0.03 0.04201,-0.007 0.08334,-0.0153 0.124023,-0.0243 0.07276,-0.0161 0.142867,-0.0354 0.211357,-0.0574 0.0082,-0.003 0.01665,-0.005 0.02481,-0.008 0.0036,-0.001 0.0072,-0.002 0.01085,-0.004 0.03437,-0.0117 0.06802,-0.0241 0.101286,-0.0372 l 5.16e-4,-5.2e-4 c 0.0253,-0.01 0.05028,-0.0203 0.07493,-0.031 0.01309,-0.006 0.02637,-0.0111 0.03927,-0.0171 0.01894,-0.009 0.03726,-0.0182 0.05581,-0.0274 0.01696,-0.008 0.03401,-0.0166 0.05064,-0.0253 0.02018,-0.0106 0.03973,-0.0219 0.05943,-0.0331 0.01027,-0.006 0.02087,-0.0111 0.03101,-0.017 0.0021,-0.001 0.0041,-0.002 0.0062,-0.004 0.02008,-0.0119 0.03935,-0.0247 0.05891,-0.0372 0.01451,-0.009 0.02918,-0.0183 0.04341,-0.0279 0.01599,-0.0107 0.0314,-0.022 0.04703,-0.0331 0.01402,-0.01 0.02812,-0.0197 0.04186,-0.03 0.01726,-0.0129 0.03436,-0.0259 0.05116,-0.0393 0.01303,-0.0104 0.026,-0.0209 0.03876,-0.0315 0.01504,-0.0125 0.02979,-0.0254 0.04444,-0.0382 0.01375,-0.0121 0.02741,-0.0243 0.04082,-0.0367 0.01493,-0.0138 0.02942,-0.0282 0.04392,-0.0424 0.01117,-0.0109 0.02215,-0.0219 0.03307,-0.0331 0.01572,-0.016 0.03131,-0.0321 0.04651,-0.0486 0.0097,-0.0105 0.01947,-0.0209 0.02894,-0.0315 0.013,-0.0146 0.02564,-0.0295 0.03824,-0.0444 0.01546,-0.0183 0.03061,-0.037 0.04548,-0.0558 0.0022,-0.003 0.0045,-0.005 0.0067,-0.008 0.0032,-0.004 0.0061,-0.008 0.0093,-0.0124 0.0136,-0.0176 0.02723,-0.0352 0.04031,-0.0532 0.01398,-0.0192 0.02744,-0.0388 0.04083,-0.0584 0.0029,-0.004 0.006,-0.008 0.0088,-0.0124 0.0034,-0.005 0.0065,-0.0104 0.0098,-0.0155 0.01279,-0.0193 0.0255,-0.0387 0.03772,-0.0584 0.0079,-0.0128 0.01557,-0.0258 0.02325,-0.0388 0.01049,-0.0177 0.02096,-0.0353 0.03101,-0.0532 0.01008,-0.018 0.01983,-0.036 0.02946,-0.0543 0.007,-0.0132 0.01393,-0.0265 0.02067,-0.0398 0.0082,-0.0162 0.01591,-0.0327 0.02377,-0.0491 0.01058,-0.0221 0.02106,-0.0442 0.03101,-0.0667 0.001,-0.002 0.0021,-0.004 0.0031,-0.007 0.0013,-0.003 0.0024,-0.006 0.0036,-0.009 0.01332,-0.0306 0.0261,-0.0614 0.03824,-0.0925 0.01243,-0.0319 0.02395,-0.0643 0.03514,-0.0966 7.29e-4,-0.002 0.0019,-0.004 0.0026,-0.006 0.0026,-0.008 0.0047,-0.0152 0.0072,-0.0227 0.0074,-0.0222 0.0149,-0.0443 0.0217,-0.0667 0.0059,-0.0195 0.01155,-0.0392 0.01705,-0.0589 0.0043,-0.0153 0.0084,-0.0306 0.0124,-0.046 0.0028,-0.0108 0.0056,-0.0217 0.0083,-0.0326 0.01581,-0.0639 0.02961,-0.12823 0.04082,-0.19327 10e-4,-0.006 0.0016,-0.0117 0.0026,-0.0176 0.01139,-0.0687 0.02062,-0.13776 0.02687,-0.20723 0.0066,-0.073 0.0105,-0.1467 0.01137,-0.22014 4e-6,-3.4e-4 -4e-6,-6.9e-4 0,-0.001 1.4e-5,-0.001 -1.2e-5,-0.002 0,-0.004 1.51e-4,-0.0148 -4.34e-4,-0.0296 -5.17e-4,-0.0444 a 2.4895995,2.4895995 0 0 0 5.17e-4,-0.006 2.4895995,2.4895995 0 0 0 -5.17e-4,-0.03 c -3.02e-4,-0.0165 -9.56e-4,-0.0331 -0.0016,-0.0496 a 2.4895995,2.4895995 0 0 0 -0.0036,-0.0765 c -2.39e-4,-0.004 -2.62e-4,-0.008 -5.16e-4,-0.0114 -7.17e-4,-0.0107 -0.0017,-0.0214 -0.0026,-0.032 a 2.4895995,2.4895995 0 0 0 -0.0052,-0.0574 c -0.0037,-0.0363 -0.0084,-0.0724 -0.01344,-0.10852 -7.71e-4,-0.005 -0.0013,-0.011 -0.0021,-0.0165 -2.97e-4,-0.002 -2.15e-4,-0.004 -5.16e-4,-0.006 -3.32e-4,-0.002 -6.97e-4,-0.004 -10e-4,-0.007 -0.0011,-0.007 -0.0025,-0.0141 -0.0036,-0.0212 -0.0047,-0.0297 -0.0093,-0.0593 -0.01499,-0.0889 -1.66e-4,-8.7e-4 -3.51e-4,-0.002 -5.17e-4,-0.003 -8e-4,-0.004 -0.0018,-0.008 -0.0026,-0.0124 -0.0066,-0.0332 -0.01391,-0.0663 -0.0217,-0.0992 -0.0074,-0.0313 -0.01523,-0.0625 -0.02377,-0.0935 -6.2e-4,-0.002 -0.0014,-0.004 -0.0021,-0.007 -0.0045,-0.0162 -0.0096,-0.0324 -0.01447,-0.0486 -0.0064,-0.0215 -0.01266,-0.0432 -0.01964,-0.0646 -7.28e-4,-0.002 -0.0013,-0.004 -0.0021,-0.007 -0.0093,-0.0283 -0.01915,-0.0562 -0.02945,-0.0842 -3.2e-4,-8.7e-4 -7.13e-4,-0.002 -10e-4,-0.003 -0.0092,-0.025 -0.01894,-0.0497 -0.02894,-0.0744 -0.0049,-0.0121 -0.0099,-0.0242 -0.01499,-0.0362 -0.0086,-0.0203 -0.01774,-0.0404 -0.02687,-0.0605 -0.0064,-0.0141 -0.01245,-0.0284 -0.01912,-0.0424 -0.0071,-0.0149 -0.01432,-0.0297 -0.0217,-0.0444 -0.01116,-0.0223 -0.02279,-0.0442 -0.03462,-0.0662 -0.0015,-0.003 -0.0027,-0.006 -0.0041,-0.008 -0.01204,-0.0221 -0.02447,-0.0439 -0.03721,-0.0656 -0.0018,-0.003 -0.0039,-0.006 -0.0057,-0.009 -0.01402,-0.0237 -0.02856,-0.047 -0.04341,-0.0703 -0.0032,-0.005 -0.006,-0.0105 -0.0093,-0.0155 -0.0022,-0.003 -0.0045,-0.007 -0.0067,-0.01 -0.01325,-0.0202 -0.02694,-0.0401 -0.04082,-0.06 -0.0087,-0.0125 -0.01738,-0.0249 -0.02636,-0.0372 -0.01165,-0.016 -0.02358,-0.0318 -0.03566,-0.0476 -0.01315,-0.0171 -0.02666,-0.0339 -0.04031,-0.0506 -0.0083,-0.0101 -0.01636,-0.0205 -0.02481,-0.0305 -0.01829,-0.0217 -0.03717,-0.043 -0.05633,-0.0641 -0.0025,-0.003 -0.0048,-0.006 -0.0072,-0.008 -0.0025,-0.003 -0.0052,-0.006 -0.0078,-0.008 -0.02044,-0.0221 -0.04163,-0.0438 -0.06305,-0.0651 -0.0071,-0.007 -0.01401,-0.0142 -0.02119,-0.0212 -0.01857,-0.018 -0.03757,-0.0357 -0.05684,-0.0532 -0.01182,-0.0107 -0.02357,-0.0215 -0.03566,-0.032 -0.01575,-0.0137 -0.03186,-0.027 -0.04806,-0.0403 -0.01548,-0.0127 -0.03113,-0.0253 -0.04703,-0.0377 -0.01567,-0.0122 -0.03199,-0.0238 -0.04806,-0.0357 -0.01368,-0.0101 -0.02737,-0.0201 -0.04134,-0.03 -0.01894,-0.0133 -0.03788,-0.0269 -0.05736,-0.0398 -0.01447,-0.01 -0.02916,-0.0186 -0.04392,-0.0279 -0.02136,-0.0134 -0.04313,-0.0264 -0.06511,-0.0393 -0.0125,-0.007 -0.02502,-0.0146 -0.03772,-0.0217 -0.02385,-0.0134 -0.0483,-0.0261 -0.07286,-0.0388 -0.01178,-0.006 -0.0232,-0.0127 -0.03514,-0.0186 -0.02331,-0.0115 -0.04738,-0.0222 -0.07131,-0.0331 -0.0155,-0.007 -0.03074,-0.0144 -0.04651,-0.0212 -0.02625,-0.0113 -0.05312,-0.0221 -0.0801,-0.0326 -0.0092,-0.004 -0.01815,-0.007 -0.02739,-0.0108 -0.0027,-10e-4 -0.0055,-0.002 -0.0083,-0.003 -0.02831,-0.0105 -0.0572,-0.0198 -0.0863,-0.0295 -0.013,-0.004 -0.0256,-0.009 -0.03876,-0.0134 -0.03551,-0.0112 -0.07186,-0.0211 -0.10852,-0.031 -0.0047,-0.001 -0.0092,-0.003 -0.01395,-0.004 -8.41e-4,-2.2e-4 -0.0017,-2.9e-4 -0.0026,-5.1e-4 -0.0433,-0.0114 -0.0874,-0.022 -0.132292,-0.0315 -0.03493,-0.007 -0.07056,-0.0139 -0.106453,-0.0202 -0.01396,-0.002 -0.02775,-0.005 -0.04186,-0.007 -0.0019,-3e-4 -0.0038,-7.4e-4 -0.0057,-0.001 -0.0432,-0.007 -0.08721,-0.0125 -0.131775,-0.0176 -0.0492,-0.006 -0.09951,-0.01 -0.150379,-0.0134 -0.05109,-0.003 -0.102764,-0.006 -0.155546,-0.007 -0.05262,-0.001 -0.105961,-0.001 -0.160197,0 z"
             transform="translate(-1.2916667e-6)" /></g><g
           id="g40"
           transform="translate(0,-0.4232729)"><path
             d="m 134.03523,35.872746 c -0.26604,-0.06387 -0.60711,-0.04955 -1.05885,0.04858 -0.93367,0.08361 -2.10152,0.520723 -3.01894,0.790132 -2.73599,0.798969 -5.90652,1.878616 -8.12922,3.690214 -2.84979,2.317928 -5.27223,7.044475 -6.90965,10.342521 -0.42038,0.84774 -1.70695,3.337535 -1.56063,4.180624 0.18349,1.045159 1.39806,1.841678 2.19935,2.420007 l 6.50348,4.39198 c 0.62942,0.42039 2.24572,1.691192 2.97036,1.547193 0.45987,-0.09057 0.86877,-0.682829 1.1498,-1.028878 l 2.15025,-2.452564 v 0 c 0.99408,5.28368 2.54077,10.407194 4.04575,15.560808 0.82683,2.828897 2.19039,6.614559 2.22519,9.522416 0.0418,3.678955 -1.15902,4.873205 -2.97295,7.897192 l -3.68814,6.502962 c -4.73573,8.962807 -9.09979,19.177377 -12.30726,28.799787 l -3.01946,9.29039 c -0.29264,0.89652 -1.15925,3.07039 -0.85731,3.92741 0.44361,1.26348 3.30541,2.15312 4.49689,2.58744 4.43378,1.62348 9.0788,2.61053 13.70304,3.51865 5.06552,0.99406 10.19357,1.48173 15.32878,1.83244 l 2.78742,0.21136 8.12871,0.23254 3.94859,-0.23254 c 6.05496,-0.009 15.23349,-1.12879 21.13515,-2.52698 l 11.3807,-3.29075 c 1.11483,-0.40877 3.3818,-1.20312 3.88813,-2.32027 0.41341,-0.9151 -0.47631,-2.97311 -0.7736,-3.9393 l -3.11453,-9.75496 C 189.489,118.2937 185.50817,109.19854 180.99309,100.4471 l -4.16667,-7.432106 c -1.01264,-1.697808 -2.22513,-3.441914 -2.79415,-5.341793 -0.93136,-3.105275 0.28786,-6.728653 1.14722,-9.75496 1.22167,-4.299075 4.29946,-13.747406 4.69894,-17.862992 0.005,-0.05575 -0.009,-0.180982 0.005,-0.255282 0.0975,0.0024 0.29077,-0.0095 0.36277,0.04858 0.63173,0.805929 2.17844,2.859446 3.03082,3.642155 0.75484,0.11381 2.47119,-1.319578 3.11919,-1.753898 l 6.50296,-4.35684 c 0.76878,-0.552769 2.13236,-1.43525 2.28565,-2.429309 0.0906,-0.594579 -0.33462,-1.344766 -0.56224,-1.883606 l -2.01331,-4.180623 c -1.1427,-2.287728 -3.49351,-6.113154 -5.30511,-7.857402 -2.09729,-2.018318 -5.15808,-3.082071 -7.87549,-3.98787 -1.07766,-0.36 -3.0965,-1.024628 -4.18114,-1.119828 -1.87198,-0.21832 -1.74857,0.258272 -2.24327,2.04897 -0.9151,2.849797 -1.31445,4.491443 -2.83342,7.199561 -2.68489,4.789135 -6.92396,5.407142 -11.18123,7.899259 0,0 -3.80866,2.612765 -4.31963,3.040125 -0.15097,0.10219 -0.34418,0.383391 -0.56017,0.397391 -0.18813,0.007 -0.57802,-0.441231 -0.79169,-0.587561 -0.45058,-0.355349 -0.72491,-0.610847 -1.05471,-0.850077 -1.39819,-1.045159 -2.16692,-1.602445 -3.72536,-2.406055 -3.00075,-1.549158 -6.13366,-2.487904 -8.58397,-4.947501 -1.30297,-1.307609 -2.33176,-3.174762 -3.05873,-4.86792 l -1.4981,-4.413167 c -0.43722,-1.471927 -0.56354,-2.36999 -1.36167,-2.561601 z m 32.06057,17.451648 c 0.82992,0.151766 1.02952,0.919149 1.34308,2.297017 0.30193,1.565409 0.22791,4.731077 -0.17622,6.270935 -0.29728,1.131099 -0.71342,2.062665 -2.00246,2.267045 -0.88722,0.13936 -1.99026,-0.229892 -2.78691,-0.592212 -1.04515,-0.476129 -4.13423,-2.164838 -4.64055,-3.089217 -0.17187,-0.20671 -0.51568,-1.061086 -0.52968,-1.618506 -0.0372,-0.483089 -0.0716,-1.147413 0.0724,-1.516703 1.45393,-2.060118 5.56941,-3.525646 7.65276,-3.964616 0.44419,-0.08652 0.791,-0.104332 1.06763,-0.05374 z m -23.87089,0.02119 c 1.24257,-0.13703 2.18599,0.28313 3.29386,0.65009 1.64205,0.543489 4.37082,1.572505 5.44152,3.653523 0.1184,0.46916 0.16032,1.059164 0.0837,1.516704 -0.0836,0.441289 -0.26744,0.994114 -0.48576,1.291394 -0.25548,0.569029 -1.04036,1.012733 -1.55598,1.337902 -1.23095,0.76877 -3.02376,1.839098 -4.41265,2.206067 -0.8129,0.21368 -1.78166,0.341691 -2.5063,-0.190169 -1.54684,-1.133419 -1.61868,-5.727418 -1.33997,-7.492566 0.19974,-1.275099 0.29938,-2.292426 1.48156,-2.972945 z m 11.37863,5.351095 c 1.21471,-0.17187 1.84641,0.515848 1.89291,1.238167 0.0395,0.589939 -0.3508,1.235316 -0.91519,1.439705 -0.84077,0.30426 -1.82343,-0.53851 -1.86293,-1.407149 -0.0209,-0.457549 0.25347,-0.889824 0.88521,-1.270723 z"
             style="display:inline;fill:#3b82f6;stroke:none;stroke-width:0.382;stroke-linecap:round;stroke-linejoin:bevel;stroke-dasharray:none;stroke-opacity:1;paint-order:fill markers stroke"
             id="path7" /><path
             id="path8"
             style="fill:#e7f0fe;fill-opacity:1;stroke:url(#linearGradient43);stroke-width:0;stroke-linecap:round;stroke-linejoin:bevel;stroke-dasharray:none;stroke-opacity:1;paint-order:fill markers stroke"
             d="m 153.92962,58.670364 c -0.10363,0.0017 -0.2122,0.01024 -0.32608,0.02636 -0.63174,0.380898 -0.90611,0.813174 -0.88521,1.270723 0.0395,0.868638 1.02216,1.711409 1.86293,1.407149 0.56439,-0.204389 0.95467,-0.849767 0.91519,-1.439705 -0.0421,-0.654601 -0.56508,-1.280788 -1.56683,-1.264522 z" /><path
             id="path6"
             style="fill:#ffffff;stroke-width:0.481999;stroke-linecap:round;stroke-linejoin:bevel;paint-order:fill markers stroke"
             d="m 165.69014,53.297048 c -0.19304,0.0053 -0.41212,0.03247 -0.66197,0.08113 -2.08335,0.43897 -6.19883,1.904502 -7.65276,3.964616 -0.144,0.36929 -0.10946,1.033616 -0.0724,1.516703 0.014,0.55742 0.35781,1.411796 0.52968,1.618506 0.50632,0.924377 3.5954,2.61309 4.64055,3.089217 0.79665,0.36232 1.89969,0.731572 2.78691,0.592212 1.28904,-0.20438 1.70518,-1.135948 2.00246,-2.267045 0.40413,-1.539854 0.47815,-4.70553 0.17622,-6.270935 -0.31356,-1.377866 -0.51316,-2.145253 -1.34308,-2.297017 -0.0692,-0.01265 -0.14282,-0.02123 -0.22117,-0.02532 -0.0588,-0.0031 -0.12014,-0.0038 -0.18449,-0.0021 z" /><path
             id="path5"
             style="fill:#ffffff;stroke-width:0.481999;stroke-linecap:round;stroke-linejoin:bevel;paint-order:fill markers stroke"
             d="m 142.6776,53.319269 c -0.14688,9.09e-4 -0.29737,0.0092 -0.45269,0.02636 -1.18218,0.680518 -1.28182,1.697847 -1.48156,2.972945 -0.27871,1.765146 -0.20687,6.359148 1.33997,7.492566 0.72464,0.53186 1.6934,0.403849 2.5063,0.190169 1.38889,-0.366968 3.18171,-1.437297 4.41265,-2.206067 0.51562,-0.325168 1.3005,-0.768874 1.55598,-1.337902 0.21832,-0.29728 0.40215,-0.850106 0.48576,-1.291394 0.0766,-0.45754 0.0347,-1.047544 -0.0837,-1.516704 -1.07069,-2.081016 -3.79948,-3.110035 -5.44152,-3.653524 -0.96939,-0.321089 -1.81303,-0.682805 -2.84117,-0.676444 z" /></g></g></g></g></svg>
